<svg width="89" height="50" viewBox="0 0 89 50" fill="none" xmlns="http://www.w3.org/2000/svg">
<g filter="url(#filter0_dddd_958_1833)">
<rect x="33" y="6.5" width="53" height="41" rx="7.5" fill="url(#paint0_linear_958_1833)"/>
<rect x="33" y="6.5" width="53" height="41" rx="7.5" stroke="#E4B764"/>
<path fill-rule="evenodd" clip-rule="evenodd" d="M60.7776 10.2659C60.7776 10.965 60.2108 11.5317 59.5117 11.5317C58.8126 11.5317 58.2459 10.965 58.2459 10.2659C58.2459 9.56674 58.8126 9 59.5117 9C60.2108 9 60.7776 9.56674 60.7776 10.2659ZM59.5117 10.9762C59.904 10.9762 60.222 10.6581 60.222 10.2659C60.222 9.87357 59.904 9.55556 59.5117 9.55556C59.1194 9.55556 58.8014 9.87357 58.8014 10.2659C58.8014 10.6581 59.1194 10.9762 59.5117 10.9762Z" fill="url(#paint1_linear_958_1833)"/>
<path fill-rule="evenodd" clip-rule="evenodd" d="M59.5117 11.5317C59.2256 11.5317 58.9616 11.4368 58.7496 11.2767C58.4436 11.0457 58.2459 10.6789 58.2459 10.2659C58.2459 9.56674 58.8126 9 59.5117 9C60.2108 9 60.7776 9.56674 60.7776 10.2659C60.7776 10.6789 60.5798 11.0457 60.2738 11.2767C60.0618 11.4368 59.7978 11.5317 59.5117 11.5317ZM62.2738 26.6036C62.2819 26.5587 62.2895 26.5138 62.2966 26.4689H56.5784C56.5859 26.514 56.5942 26.5589 56.6033 26.6036C56.6323 26.7466 56.669 26.8873 56.7138 27.0244C57.0736 28.127 57.9526 28.9981 59.5117 28.9982C61.2271 29.0474 61.8957 28.1009 62.1811 27.0244C62.2179 26.8857 62.2483 26.7448 62.2738 26.6036ZM57.3041 27.0244H61.6034C61.5015 27.356 61.36 27.6441 61.1623 27.8697C60.8695 28.204 60.3946 28.4677 59.5277 28.4428L59.5197 28.4426H59.5117C58.7347 28.4426 58.2011 28.1944 57.8364 27.841C57.608 27.6196 57.4303 27.3415 57.3041 27.0244ZM60.222 10.2659C60.222 10.6581 59.904 10.9762 59.5117 10.9762C59.1194 10.9762 58.8014 10.6581 58.8014 10.2659C58.8014 9.87357 59.1194 9.55556 59.5117 9.55556C59.904 9.55556 60.222 9.87357 60.222 10.2659Z" fill="url(#paint2_linear_958_1833)"/>
<path fill-rule="evenodd" clip-rule="evenodd" d="M67.0234 24.3179C66.9289 24.1239 66.6904 23.8759 66.4376 23.6131C66.0523 23.2125 65.6337 22.7771 65.64 22.4448V17.2503C65.64 16.2982 65.3651 15.4024 64.8822 14.6226L66.5592 12.9456C66.8601 12.6447 66.8601 12.1568 66.5592 11.8559C66.2583 11.555 65.7704 11.555 65.4695 11.8559L63.8904 13.4351C63.8489 13.3974 63.8069 13.3602 63.7643 13.3236C62.8652 12.5512 61.7022 12.0209 60.4088 11.8514C60.116 11.813 59.8164 11.7931 59.5117 11.7931C59.207 11.7931 58.9075 11.813 58.6146 11.8514C55.6583 12.2388 53.3835 14.5114 53.3835 17.2503V22.4448C53.3898 22.7771 52.9711 23.2125 52.5858 23.6131C52.333 23.8759 52.0946 24.1239 52 24.3179V25.3254L50.6892 26.6362C50.3883 26.9371 50.3883 27.425 50.6892 27.7259C50.9901 28.0268 51.478 28.0268 51.7789 27.7259L53.4567 26.0481L67.0234 26.0481V24.3179ZM66.4679 25.4925V24.4754C66.4304 24.4255 66.3744 24.358 66.2944 24.2701C66.2134 24.1812 66.1335 24.0983 66.0468 24.0083C65.9807 23.9396 65.9107 23.8669 65.8331 23.7842C65.6712 23.6116 65.4949 23.414 65.3583 23.2125C65.2333 23.028 65.0806 22.7544 65.0844 22.4406V17.2503C65.0844 16.4584 64.8659 15.7013 64.4756 15.0291L54.0123 25.4925L66.4679 25.4925ZM57.8009 14.4356C58.2807 14.1875 57.8819 13.5476 57.3958 13.7748C55.9628 14.4654 55.0694 15.8015 55.0694 17.2503C55.0688 17.2997 55.0793 17.3488 55.1003 17.3945C55.1213 17.4403 55.1523 17.4819 55.1916 17.5168C55.2308 17.5518 55.2775 17.5794 55.3289 17.5981C55.3803 17.6168 55.4354 17.6261 55.4909 17.6256C55.7269 17.6256 55.9124 17.4604 55.9124 17.2503C55.9138 16.6733 56.0899 16.1074 56.4222 15.6121C56.7544 15.1167 57.2304 14.7103 57.8002 14.4356H57.8009Z" fill="url(#paint3_linear_958_1833)"/>
<g clip-path="url(#clip0_958_1833)">
<path d="M44.166 36.9434V38.3145H39.7129V36.9434H44.166ZM40.2344 33.4688V42H38.4766V33.4688H40.2344ZM45.4199 33.4688V42H43.668V33.4688H45.4199ZM50.5938 40.4824V35.6602H52.2812V42H50.6934L50.5938 40.4824ZM50.7812 39.1816L51.2793 39.1699C51.2793 39.5918 51.2305 39.9844 51.1328 40.3477C51.0352 40.707 50.8887 41.0195 50.6934 41.2852C50.498 41.5469 50.252 41.752 49.9551 41.9004C49.6582 42.0449 49.3086 42.1172 48.9062 42.1172C48.5977 42.1172 48.3125 42.0742 48.0508 41.9883C47.793 41.8984 47.5703 41.7598 47.3828 41.5723C47.1992 41.3809 47.0547 41.1367 46.9492 40.8398C46.8477 40.5391 46.7969 40.1777 46.7969 39.7559V35.6602H48.4844V39.7676C48.4844 39.9551 48.5059 40.1133 48.5488 40.2422C48.5957 40.3711 48.6602 40.4766 48.7422 40.5586C48.8242 40.6406 48.9199 40.6992 49.0293 40.7344C49.1426 40.7695 49.2676 40.7871 49.4043 40.7871C49.752 40.7871 50.0254 40.7168 50.2246 40.5762C50.4277 40.4355 50.5703 40.2441 50.6523 40.002C50.7383 39.7559 50.7812 39.4824 50.7812 39.1816ZM55.4512 41.2852L57.1328 35.6602H58.9434L56.3945 42.9551C56.3398 43.1152 56.2656 43.2871 56.1719 43.4707C56.082 43.6543 55.959 43.8281 55.8027 43.9922C55.6504 44.1602 55.457 44.2969 55.2227 44.4023C54.9922 44.5078 54.709 44.5605 54.373 44.5605C54.2129 44.5605 54.082 44.5508 53.9805 44.5312C53.8789 44.5117 53.7578 44.4844 53.6172 44.4492V43.2129C53.6602 43.2129 53.7051 43.2129 53.752 43.2129C53.7988 43.2168 53.8438 43.2188 53.8867 43.2188C54.1094 43.2188 54.291 43.1934 54.4316 43.1426C54.5723 43.0918 54.6855 43.0137 54.7715 42.9082C54.8574 42.8066 54.9258 42.6738 54.9766 42.5098L55.4512 41.2852ZM54.748 35.6602L56.125 40.2539L56.3652 42.041L55.2168 42.1641L52.9375 35.6602H54.748ZM56.5996 34.5938H55.3281L55.2344 33.8086C55.4297 33.7969 55.5859 33.7773 55.7031 33.75C55.8242 33.7188 55.9121 33.6758 55.9668 33.6211C56.0254 33.5664 56.0547 33.498 56.0547 33.416C56.0547 33.334 56.0332 33.2676 55.9902 33.2168C55.9512 33.1621 55.8926 33.1211 55.8145 33.0938C55.7363 33.0625 55.6465 33.041 55.5449 33.0293C55.4434 33.0137 55.332 33.0059 55.2109 33.0059L55.252 32.2324C55.6152 32.2324 55.9355 32.2578 56.2129 32.3086C56.4941 32.3594 56.7285 32.4355 56.916 32.5371C57.1035 32.6348 57.2441 32.7539 57.3379 32.8945C57.4355 33.0352 57.4844 33.1934 57.4844 33.3691C57.4844 33.6387 57.3926 33.8398 57.209 33.9727C57.0254 34.1016 56.8223 34.1816 56.5996 34.2129V34.5938ZM64.3867 33V42H62.6934V33H64.3867ZM67.5625 35.6602V42H65.8691V35.6602H67.5625ZM65.7637 34.0078C65.7637 33.7617 65.8496 33.5586 66.0215 33.3984C66.1934 33.2383 66.4238 33.1582 66.7129 33.1582C66.998 33.1582 67.2266 33.2383 67.3984 33.3984C67.5742 33.5586 67.6621 33.7617 67.6621 34.0078C67.6621 34.2539 67.5742 34.457 67.3984 34.6172C67.2266 34.7773 66.998 34.8574 66.7129 34.8574C66.4238 34.8574 66.1934 34.7773 66.0215 34.6172C65.8496 34.457 65.7637 34.2539 65.7637 34.0078ZM65.7578 43.3184C65.7578 43.0918 65.8438 42.9023 66.0156 42.75C66.1875 42.6016 66.418 42.5273 66.707 42.5273C66.9922 42.5273 67.2207 42.6016 67.3926 42.75C67.5684 42.9023 67.6562 43.0918 67.6562 43.3184C67.6562 43.541 67.5684 43.7285 67.3926 43.8809C67.2207 44.0332 66.9922 44.1094 66.707 44.1094C66.418 44.1094 66.1875 44.0332 66.0156 43.8809C65.8438 43.7285 65.7578 43.541 65.7578 43.3184ZM71.5762 40.7988C71.7832 40.7988 71.9668 40.7598 72.127 40.6816C72.2871 40.5996 72.4121 40.4863 72.502 40.3418C72.5957 40.1934 72.6445 40.0195 72.6484 39.8203H74.2363C74.2324 40.2656 74.1133 40.6621 73.8789 41.0098C73.6445 41.3535 73.3301 41.625 72.9355 41.8242C72.541 42.0195 72.0996 42.1172 71.6113 42.1172C71.1191 42.1172 70.6895 42.0352 70.3223 41.8711C69.959 41.707 69.6562 41.4805 69.4141 41.1914C69.1719 40.8984 68.9902 40.5586 68.8691 40.1719C68.748 39.7812 68.6875 39.3633 68.6875 38.918V38.748C68.6875 38.2988 68.748 37.8809 68.8691 37.4941C68.9902 37.1035 69.1719 36.7637 69.4141 36.4746C69.6562 36.1816 69.959 35.9531 70.3223 35.7891C70.6855 35.625 71.1113 35.543 71.5996 35.543C72.1191 35.543 72.5742 35.6426 72.9648 35.8418C73.3594 36.041 73.668 36.3262 73.8906 36.6973C74.1172 37.0645 74.2324 37.5 74.2363 38.0039H72.6484C72.6445 37.793 72.5996 37.6016 72.5137 37.4297C72.4316 37.2578 72.3105 37.1211 72.1504 37.0195C71.9941 36.9141 71.8008 36.8613 71.5703 36.8613C71.3242 36.8613 71.123 36.9141 70.9668 37.0195C70.8105 37.1211 70.6895 37.2617 70.6035 37.4414C70.5176 37.6172 70.457 37.8184 70.4219 38.0449C70.3906 38.2676 70.375 38.502 70.375 38.748V38.918C70.375 39.1641 70.3906 39.4004 70.4219 39.627C70.4531 39.8535 70.5117 40.0547 70.5977 40.2305C70.6875 40.4062 70.8105 40.5449 70.9668 40.6465C71.123 40.748 71.3262 40.7988 71.5762 40.7988ZM76.8613 33V42H75.1738V33H76.8613ZM76.6211 38.6074H76.1582C76.1621 38.166 76.2207 37.7598 76.334 37.3887C76.4473 37.0137 76.6094 36.6895 76.8203 36.416C77.0312 36.1387 77.2832 35.9238 77.5762 35.7715C77.873 35.6191 78.2012 35.543 78.5605 35.543C78.873 35.543 79.1562 35.5879 79.4102 35.6777C79.668 35.7637 79.8887 35.9043 80.0723 36.0996C80.2598 36.291 80.4043 36.543 80.5059 36.8555C80.6074 37.168 80.6582 37.5469 80.6582 37.9922V42H78.959V37.9805C78.959 37.6992 78.918 37.4785 78.8359 37.3184C78.7578 37.1543 78.6426 37.0391 78.4902 36.9727C78.3418 36.9023 78.1582 36.8672 77.9395 36.8672C77.6973 36.8672 77.4902 36.9121 77.3184 37.002C77.1504 37.0918 77.0156 37.2168 76.9141 37.377C76.8125 37.5332 76.7383 37.7168 76.6914 37.9277C76.6445 38.1387 76.6211 38.3652 76.6211 38.6074Z" fill="url(#paint4_linear_958_1833)"/>
</g>
</g>
<defs>
<filter id="filter0_dddd_958_1833" x="0.5" y="0" width="118" height="159" filterUnits="userSpaceOnUse" color-interpolation-filters="sRGB">
<feFlood flood-opacity="0" result="BackgroundImageFix"/>
<feColorMatrix in="SourceAlpha" type="matrix" values="0 0 0 0 0 0 0 0 0 0 0 0 0 0 0 0 0 0 127 0" result="hardAlpha"/>
<feOffset dy="5"/>
<feGaussianBlur stdDeviation="5.5"/>
<feColorMatrix type="matrix" values="0 0 0 0 0 0 0 0 0 0 0 0 0 0 0 0 0 0 0.1 0"/>
<feBlend mode="normal" in2="BackgroundImageFix" result="effect1_dropShadow_958_1833"/>
<feColorMatrix in="SourceAlpha" type="matrix" values="0 0 0 0 0 0 0 0 0 0 0 0 0 0 0 0 0 0 127 0" result="hardAlpha"/>
<feOffset dy="20"/>
<feGaussianBlur stdDeviation="10"/>
<feColorMatrix type="matrix" values="0 0 0 0 0 0 0 0 0 0 0 0 0 0 0 0 0 0 0.09 0"/>
<feBlend mode="normal" in2="effect1_dropShadow_958_1833" result="effect2_dropShadow_958_1833"/>
<feColorMatrix in="SourceAlpha" type="matrix" values="0 0 0 0 0 0 0 0 0 0 0 0 0 0 0 0 0 0 127 0" result="hardAlpha"/>
<feOffset dy="45"/>
<feGaussianBlur stdDeviation="13.5"/>
<feColorMatrix type="matrix" values="0 0 0 0 0 0 0 0 0 0 0 0 0 0 0 0 0 0 0.05 0"/>
<feBlend mode="normal" in2="effect2_dropShadow_958_1833" result="effect3_dropShadow_958_1833"/>
<feColorMatrix in="SourceAlpha" type="matrix" values="0 0 0 0 0 0 0 0 0 0 0 0 0 0 0 0 0 0 127 0" result="hardAlpha"/>
<feOffset dy="79"/>
<feGaussianBlur stdDeviation="16"/>
<feColorMatrix type="matrix" values="0 0 0 0 0 0 0 0 0 0 0 0 0 0 0 0 0 0 0.01 0"/>
<feBlend mode="normal" in2="effect3_dropShadow_958_1833" result="effect4_dropShadow_958_1833"/>
<feBlend mode="normal" in="SourceGraphic" in2="effect4_dropShadow_958_1833" result="shape"/>
</filter>
<linearGradient id="paint0_linear_958_1833" x1="59.5" y1="6" x2="59.5" y2="48" gradientUnits="userSpaceOnUse">
<stop stop-color="#F8E889"/>
<stop offset="1" stop-color="#E4B764"/>
</linearGradient>
<linearGradient id="paint1_linear_958_1833" x1="58.7435" y1="9" x2="58.7435" y2="29" gradientUnits="userSpaceOnUse">
<stop stop-color="#5C5C5C"/>
<stop offset="1"/>
</linearGradient>
<linearGradient id="paint2_linear_958_1833" x1="58.7435" y1="9" x2="58.7435" y2="29" gradientUnits="userSpaceOnUse">
<stop stop-color="#5C5C5C"/>
<stop offset="1"/>
</linearGradient>
<linearGradient id="paint3_linear_958_1833" x1="58.7435" y1="9" x2="58.7435" y2="29" gradientUnits="userSpaceOnUse">
<stop stop-color="#5C5C5C"/>
<stop offset="1"/>
</linearGradient>
<linearGradient id="paint4_linear_958_1833" x1="59.5" y1="31" x2="59.5" y2="45" gradientUnits="userSpaceOnUse">
<stop stop-color="#5C5C5C"/>
<stop offset="1"/>
</linearGradient>
<clipPath id="clip0_958_1833">
<rect width="44" height="14" fill="white" transform="translate(37.5 31)"/>
</clipPath>
</defs>
</svg>
