<svg width="64" height="35" viewBox="0 0 64 35" fill="none" xmlns="http://www.w3.org/2000/svg">
<g filter="url(#filter0_dddd_19484_598)">
<g clip-path="url(#clip0_19484_598)">
<g clip-path="url(#clip1_19484_598)">
<path d="M17 31.5C24.732 31.5 31 25.232 31 17.5C31 9.76801 24.732 3.5 17 3.5C9.26802 3.5 3 9.76801 3 17.5C3 25.232 9.26802 31.5 17 31.5Z" fill="#FF1D1D"/>
<path d="M17 10.8042L18.511 15.4542H23.4003L19.4447 18.3281L20.9556 22.9781L17 20.1043L13.0445 22.9781L14.5554 18.3281L10.5999 15.4542H15.4891L17 10.8042Z" fill="#F8E889"/>
<path opacity="0.25" d="M25.8799 8.34092C27.9228 11.8901 23.7471 15.8787 18.3863 18.9645C13.0254 22.0504 6.56429 23.5224 5.39668 20.2779C4.00997 16.4248 5.79246 9.73122 11.1534 6.64537C16.5142 3.55952 23.8369 4.79181 25.8799 8.34092Z" fill="white"/>
</g>
</g>
<rect x="2.5" y="3" width="29" height="29" rx="14.5" stroke="white"/>
</g>
<defs>
<filter id="filter0_dddd_19484_598" x="-30" y="-3.5" width="94" height="147" filterUnits="userSpaceOnUse" color-interpolation-filters="sRGB">
<feFlood flood-opacity="0" result="BackgroundImageFix"/>
<feColorMatrix in="SourceAlpha" type="matrix" values="0 0 0 0 0 0 0 0 0 0 0 0 0 0 0 0 0 0 127 0" result="hardAlpha"/>
<feOffset dy="5"/>
<feGaussianBlur stdDeviation="5.5"/>
<feColorMatrix type="matrix" values="0 0 0 0 0 0 0 0 0 0 0 0 0 0 0 0 0 0 0.1 0"/>
<feBlend mode="normal" in2="BackgroundImageFix" result="effect1_dropShadow_19484_598"/>
<feColorMatrix in="SourceAlpha" type="matrix" values="0 0 0 0 0 0 0 0 0 0 0 0 0 0 0 0 0 0 127 0" result="hardAlpha"/>
<feOffset dy="20"/>
<feGaussianBlur stdDeviation="10"/>
<feColorMatrix type="matrix" values="0 0 0 0 0 0 0 0 0 0 0 0 0 0 0 0 0 0 0.09 0"/>
<feBlend mode="normal" in2="effect1_dropShadow_19484_598" result="effect2_dropShadow_19484_598"/>
<feColorMatrix in="SourceAlpha" type="matrix" values="0 0 0 0 0 0 0 0 0 0 0 0 0 0 0 0 0 0 127 0" result="hardAlpha"/>
<feOffset dy="45"/>
<feGaussianBlur stdDeviation="13.5"/>
<feColorMatrix type="matrix" values="0 0 0 0 0 0 0 0 0 0 0 0 0 0 0 0 0 0 0.05 0"/>
<feBlend mode="normal" in2="effect2_dropShadow_19484_598" result="effect3_dropShadow_19484_598"/>
<feColorMatrix in="SourceAlpha" type="matrix" values="0 0 0 0 0 0 0 0 0 0 0 0 0 0 0 0 0 0 127 0" result="hardAlpha"/>
<feOffset dy="79"/>
<feGaussianBlur stdDeviation="16"/>
<feColorMatrix type="matrix" values="0 0 0 0 0 0 0 0 0 0 0 0 0 0 0 0 0 0 0.01 0"/>
<feBlend mode="normal" in2="effect3_dropShadow_19484_598" result="effect4_dropShadow_19484_598"/>
<feBlend mode="normal" in="SourceGraphic" in2="effect4_dropShadow_19484_598" result="shape"/>
</filter>
<clipPath id="clip0_19484_598">
<rect x="2" y="2.5" width="30" height="30" rx="15" fill="white"/>
</clipPath>
<clipPath id="clip1_19484_598">
<rect width="28" height="28" fill="white" transform="translate(3 3.5)"/>
</clipPath>
</defs>
</svg>
