<svg width="22" height="23" viewBox="0 0 22 23" fill="none" xmlns="http://www.w3.org/2000/svg">
<path d="M0.701557 5.7384L9.86822 10.6627C10.1762 10.8277 10.5747 10.906 10.9756 10.906C11.3764 10.906 11.7749 10.8277 12.0829 10.6627L21.2496 5.7384C21.8472 5.41696 22.4119 4.16663 21.3156 4.16663H0.63678C-0.459553 4.16663 0.105113 5.41696 0.701557 5.7384ZM21.527 8.43096L12.0829 13.3528C11.6673 13.5704 11.3764 13.5961 10.9756 13.5961C10.5747 13.5961 10.2838 13.5704 9.86822 13.3528C9.45267 13.1353 1.15011 8.78296 0.47178 8.42974C-0.00488688 8.1804 1.97519e-06 8.47251 1.97519e-06 8.6974V17.6111C1.97519e-06 18.1244 0.69178 18.8333 1.22222 18.8333H20.7778C21.3082 18.8333 22 18.1244 22 17.6111V8.69863C22 8.47374 22.0049 8.18163 21.527 8.43096Z" fill="url(#paint0_linear_19484_1653)"/>
<defs>
<linearGradient id="paint0_linear_19484_1653" x1="11" y1="4.16663" x2="11" y2="18.8333" gradientUnits="userSpaceOnUse">
<stop stop-color="#F8E889"/>
<stop offset="1" stop-color="#E4B764"/>
</linearGradient>
</defs>
</svg>
