<svg width="10" height="10" viewBox="0 0 10 10" fill="none" xmlns="http://www.w3.org/2000/svg">
<path d="M0 5C0 4.30964 0.559644 3.75 1.25 3.75H8.75C9.44036 3.75 10 4.30964 10 5C10 5.69036 9.44036 6.25 8.75 6.25H1.25C0.559644 6.25 0 5.69036 0 5Z" fill="url(#paint0_linear_19484_1626)"/>
<path d="M3.75 1.25C3.75 0.559644 4.30964 0 5 0C5.69036 0 6.25 0.559644 6.25 1.25V8.75C6.25 9.44036 5.69036 10 5 10C4.30964 10 3.75 9.44036 3.75 8.75V1.25Z" fill="url(#paint1_linear_19484_1626)"/>
<defs>
<linearGradient id="paint0_linear_19484_1626" x1="5" y1="0" x2="5" y2="10" gradientUnits="userSpaceOnUse">
<stop stop-color="#5C5C5C"/>
<stop offset="1"/>
</linearGradient>
<linearGradient id="paint1_linear_19484_1626" x1="5" y1="0" x2="5" y2="10" gradientUnits="userSpaceOnUse">
<stop stop-color="#5C5C5C"/>
<stop offset="1"/>
</linearGradient>
</defs>
</svg>
