<svg width="41" height="20" viewBox="0 0 41 20" fill="none" xmlns="http://www.w3.org/2000/svg">
<path d="M26.64 13.4448V8.25029C26.64 5.24006 23.8921 2.79314 20.5117 2.79314C17.1313 2.79314 14.3834 5.24006 14.3834 8.25029V13.4448C14.3939 13.9952 13.2387 14.8281 13 15.3179L13 17.0481L28.0234 17.0481V15.3179C27.7847 14.8281 26.6295 13.9952 26.64 13.4448ZM18.8002 5.43563C18.2304 5.71034 17.7544 6.11675 17.4221 6.61208C17.0899 7.10741 16.9138 7.67334 16.9124 8.25029C16.9124 8.46042 16.7268 8.62562 16.4909 8.62562C16.4354 8.62612 16.3803 8.61676 16.3289 8.59808C16.2775 8.5794 16.2308 8.55177 16.1916 8.51682C16.1523 8.48186 16.1213 8.44028 16.1003 8.39452C16.0793 8.34875 16.0688 8.29972 16.0694 8.25029C16.0694 6.8015 16.9628 5.46538 18.3957 4.77485C18.8819 4.54763 19.2806 5.18752 18.8009 5.43563H18.8002ZM20.5117 19.9982C22.5185 20.0558 23.0926 18.7506 23.2966 17.4689H17.5783C17.8048 18.8194 18.6981 19.9981 20.5117 19.9982Z" fill="url(#paint0_linear_899_3823)"/>
<path d="M21.7776 1.26586C21.7776 1.96497 21.2108 2.53172 20.5117 2.53172C19.8126 2.53172 19.2458 1.96497 19.2458 1.26586C19.2458 0.566745 19.8126 0 20.5117 0C21.2108 0 21.7776 0.566745 21.7776 1.26586Z" fill="url(#paint1_linear_899_3823)"/>
<defs>
<linearGradient id="paint0_linear_899_3823" x1="20.5117" y1="0" x2="20.5117" y2="20" gradientUnits="userSpaceOnUse">
<stop stop-color="#F8E889"/>
<stop offset="1" stop-color="#E4B764"/>
</linearGradient>
<linearGradient id="paint1_linear_899_3823" x1="20.5117" y1="0" x2="20.5117" y2="20" gradientUnits="userSpaceOnUse">
<stop stop-color="#F8E889"/>
<stop offset="1" stop-color="#E4B764"/>
</linearGradient>
</defs>
</svg>
