<svg width="55" height="46" viewBox="0 0 55 46" fill="none" xmlns="http://www.w3.org/2000/svg">
<rect x="2.5" y="2.5" width="50" height="41" rx="7.5" fill="url(#paint0_linear_936_1882)"/>
<rect x="2.5" y="2.5" width="50" height="41" rx="7.5" stroke="#1A1A1A"/>
<path d="M33.64 18.4448V13.2503C33.64 10.2401 30.8921 7.79314 27.5117 7.79314C24.1313 7.79314 21.3834 10.2401 21.3834 13.2503V18.4448C21.3939 18.9952 20.2387 19.8281 20 20.3179L20 22.0481L35.0234 22.0481V20.3179C34.7847 19.8281 33.6295 18.9952 33.64 18.4448ZM25.8002 10.4356C25.2304 10.7103 24.7544 11.1167 24.4221 11.6121C24.0899 12.1074 23.9138 12.6733 23.9124 13.2503C23.9124 13.4604 23.7268 13.6256 23.4909 13.6256C23.4354 13.6261 23.3803 13.6168 23.3289 13.5981C23.2775 13.5794 23.2308 13.5518 23.1916 13.5168C23.1523 13.4819 23.1213 13.4403 23.1003 13.3945C23.0793 13.3488 23.0688 13.2997 23.0694 13.2503C23.0694 11.8015 23.9628 10.4654 25.3957 9.77485C25.8819 9.54763 26.2806 10.1875 25.8009 10.4356H25.8002ZM27.5117 24.9982C29.5185 25.0558 30.0926 23.7506 30.2966 22.4689H24.5783C24.8048 23.8194 25.6981 24.9981 27.5117 24.9982Z" fill="url(#paint1_linear_936_1882)"/>
<path d="M28.7776 6.26586C28.7776 6.96497 28.2108 7.53172 27.5117 7.53172C26.8126 7.53172 26.2458 6.96497 26.2458 6.26586C26.2458 5.56674 26.8126 5 27.5117 5C28.2108 5 28.7776 5.56674 28.7776 6.26586Z" fill="url(#paint2_linear_936_1882)"/>
<g clip-path="url(#clip0_936_1882)">
<path d="M10.6602 38H8.80273L8.81445 36.6289H10.6602C11.1211 36.6289 11.5098 36.5254 11.8262 36.3184C12.1426 36.1074 12.3809 35.8008 12.541 35.3984C12.7051 34.9961 12.7871 34.5098 12.7871 33.9395V33.5234C12.7871 33.0859 12.7402 32.7012 12.6465 32.3691C12.5566 32.0371 12.4219 31.7578 12.2422 31.5312C12.0625 31.3047 11.8418 31.1348 11.5801 31.0215C11.3184 30.9043 11.0176 30.8457 10.6777 30.8457H8.76758V29.4688H10.6777C11.248 29.4688 11.7695 29.5664 12.2422 29.7617C12.7188 29.9531 13.1309 30.2285 13.4785 30.5879C13.8262 30.9473 14.0938 31.377 14.2812 31.877C14.4727 32.373 14.5684 32.9258 14.5684 33.5352V33.9395C14.5684 34.5449 14.4727 35.0977 14.2812 35.5977C14.0938 36.0977 13.8262 36.5273 13.4785 36.8867C13.1348 37.2422 12.7227 37.5176 12.2422 37.7129C11.7656 37.9043 11.2383 38 10.6602 38ZM9.79883 29.4688V38H8.04102V29.4688H9.79883ZM11.2754 33.1777V34.2207H7.16797V33.1777H11.2754ZM19.1621 36.5703V33.7461C19.1621 33.543 19.1289 33.3691 19.0625 33.2246C18.9961 33.0762 18.8926 32.9609 18.752 32.8789C18.6152 32.7969 18.4375 32.7559 18.2188 32.7559C18.0312 32.7559 17.8691 32.7891 17.7324 32.8555C17.5957 32.918 17.4902 33.0098 17.416 33.1309C17.3418 33.248 17.3047 33.3867 17.3047 33.5469H15.6172C15.6172 33.2773 15.6797 33.0215 15.8047 32.7793C15.9297 32.5371 16.1113 32.3242 16.3496 32.1406C16.5879 31.9531 16.8711 31.8066 17.1992 31.7012C17.5312 31.5957 17.9023 31.543 18.3125 31.543C18.8047 31.543 19.2422 31.625 19.625 31.7891C20.0078 31.9531 20.3086 32.1992 20.5273 32.5273C20.75 32.8555 20.8613 33.2656 20.8613 33.7578V36.4707C20.8613 36.8184 20.8828 37.1035 20.9258 37.3262C20.9688 37.5449 21.0312 37.7363 21.1133 37.9004V38H19.4082C19.3262 37.8281 19.2637 37.6133 19.2207 37.3555C19.1816 37.0938 19.1621 36.832 19.1621 36.5703ZM19.3848 34.1387L19.3965 35.0938H18.4531C18.2305 35.0938 18.0371 35.1191 17.873 35.1699C17.709 35.2207 17.5742 35.293 17.4688 35.3867C17.3633 35.4766 17.2852 35.582 17.2344 35.7031C17.1875 35.8242 17.1641 35.957 17.1641 36.1016C17.1641 36.2461 17.1973 36.377 17.2637 36.4941C17.3301 36.6074 17.4258 36.6973 17.5508 36.7637C17.6758 36.8262 17.8223 36.8574 17.9902 36.8574C18.2441 36.8574 18.4648 36.8066 18.6523 36.7051C18.8398 36.6035 18.9844 36.4785 19.0859 36.3301C19.1914 36.1816 19.2461 36.041 19.25 35.9082L19.6953 36.623C19.6328 36.7832 19.5469 36.9492 19.4375 37.1211C19.332 37.293 19.1973 37.4551 19.0332 37.6074C18.8691 37.7559 18.6719 37.8789 18.4414 37.9766C18.2109 38.0703 17.9375 38.1172 17.6211 38.1172C17.2188 38.1172 16.8535 38.0371 16.5254 37.877C16.2012 37.7129 15.9434 37.4883 15.752 37.2031C15.5645 36.9141 15.4707 36.5859 15.4707 36.2188C15.4707 35.8867 15.5332 35.5918 15.6582 35.334C15.7832 35.0762 15.9668 34.8594 16.209 34.6836C16.4551 34.5039 16.7617 34.3691 17.1289 34.2793C17.4961 34.1855 17.9219 34.1387 18.4062 34.1387H19.3848ZM19.1445 29.0703H20.3457C20.3457 29.4062 20.2617 29.7051 20.0938 29.9668C19.9297 30.2246 19.6953 30.4277 19.3906 30.5762C19.0859 30.7207 18.7266 30.793 18.3125 30.793C17.6836 30.793 17.1855 30.6328 16.8184 30.3125C16.4551 29.9922 16.2734 29.5781 16.2734 29.0703H17.4688C17.4688 29.2734 17.5312 29.4551 17.6562 29.6152C17.7852 29.7754 18.0039 29.8555 18.3125 29.8555C18.6172 29.8555 18.832 29.7754 18.957 29.6152C19.082 29.4551 19.1445 29.2734 19.1445 29.0703ZM16.918 39.2891C16.918 39.0625 17.0039 38.873 17.1758 38.7207C17.3477 38.5723 17.5781 38.498 17.8672 38.498C18.1523 38.498 18.3809 38.5723 18.5527 38.7207C18.7285 38.873 18.8164 39.0625 18.8164 39.2891C18.8164 39.5117 18.7285 39.6992 18.5527 39.8516C18.3809 40.0039 18.1523 40.0801 17.8672 40.0801C17.5781 40.0801 17.3477 40.0039 17.1758 39.8516C17.0039 39.6992 16.918 39.5117 16.918 39.2891ZM25.2676 31.6602V32.8555H21.5762V31.6602H25.2676ZM22.4902 30.0957H24.1777V36.0898C24.1777 36.2734 24.2012 36.4141 24.248 36.5117C24.2988 36.6094 24.373 36.6777 24.4707 36.7168C24.5684 36.752 24.6914 36.7695 24.8398 36.7695C24.9453 36.7695 25.0391 36.7656 25.1211 36.7578C25.207 36.7461 25.2793 36.7344 25.3379 36.7227L25.3438 37.9648C25.1992 38.0117 25.043 38.0488 24.875 38.0762C24.707 38.1035 24.5215 38.1172 24.3184 38.1172C23.9473 38.1172 23.623 38.0566 23.3457 37.9355C23.0723 37.8105 22.8613 37.6113 22.7129 37.3379C22.5645 37.0645 22.4902 36.7051 22.4902 36.2598V30.0957ZM30.998 29V38H29.3047V29H30.998ZM34.1738 31.6602V38H32.4805V31.6602H34.1738ZM32.375 30.0078C32.375 29.7617 32.4609 29.5586 32.6328 29.3984C32.8047 29.2383 33.0352 29.1582 33.3242 29.1582C33.6094 29.1582 33.8379 29.2383 34.0098 29.3984C34.1855 29.5586 34.2734 29.7617 34.2734 30.0078C34.2734 30.2539 34.1855 30.457 34.0098 30.6172C33.8379 30.7773 33.6094 30.8574 33.3242 30.8574C33.0352 30.8574 32.8047 30.7773 32.6328 30.6172C32.4609 30.457 32.375 30.2539 32.375 30.0078ZM32.3691 39.3184C32.3691 39.0918 32.4551 38.9023 32.627 38.75C32.7988 38.6016 33.0293 38.5273 33.3184 38.5273C33.6035 38.5273 33.832 38.6016 34.0039 38.75C34.1797 38.9023 34.2676 39.0918 34.2676 39.3184C34.2676 39.541 34.1797 39.7285 34.0039 39.8809C33.832 40.0332 33.6035 40.1094 33.3184 40.1094C33.0293 40.1094 32.7988 40.0332 32.627 39.8809C32.4551 39.7285 32.3691 39.541 32.3691 39.3184ZM38.1875 36.7988C38.3945 36.7988 38.5781 36.7598 38.7383 36.6816C38.8984 36.5996 39.0234 36.4863 39.1133 36.3418C39.207 36.1934 39.2559 36.0195 39.2598 35.8203H40.8477C40.8438 36.2656 40.7246 36.6621 40.4902 37.0098C40.2559 37.3535 39.9414 37.625 39.5469 37.8242C39.1523 38.0195 38.7109 38.1172 38.2227 38.1172C37.7305 38.1172 37.3008 38.0352 36.9336 37.8711C36.5703 37.707 36.2676 37.4805 36.0254 37.1914C35.7832 36.8984 35.6016 36.5586 35.4805 36.1719C35.3594 35.7812 35.2988 35.3633 35.2988 34.918V34.748C35.2988 34.2988 35.3594 33.8809 35.4805 33.4941C35.6016 33.1035 35.7832 32.7637 36.0254 32.4746C36.2676 32.1816 36.5703 31.9531 36.9336 31.7891C37.2969 31.625 37.7227 31.543 38.2109 31.543C38.7305 31.543 39.1855 31.6426 39.5762 31.8418C39.9707 32.041 40.2793 32.3262 40.502 32.6973C40.7285 33.0645 40.8438 33.5 40.8477 34.0039H39.2598C39.2559 33.793 39.2109 33.6016 39.125 33.4297C39.043 33.2578 38.9219 33.1211 38.7617 33.0195C38.6055 32.9141 38.4121 32.8613 38.1816 32.8613C37.9355 32.8613 37.7344 32.9141 37.5781 33.0195C37.4219 33.1211 37.3008 33.2617 37.2148 33.4414C37.1289 33.6172 37.0684 33.8184 37.0332 34.0449C37.002 34.2676 36.9863 34.502 36.9863 34.748V34.918C36.9863 35.1641 37.002 35.4004 37.0332 35.627C37.0645 35.8535 37.123 36.0547 37.209 36.2305C37.2988 36.4062 37.4219 36.5449 37.5781 36.6465C37.7344 36.748 37.9375 36.7988 38.1875 36.7988ZM43.4727 29V38H41.7852V29H43.4727ZM43.2324 34.6074H42.7695C42.7734 34.166 42.832 33.7598 42.9453 33.3887C43.0586 33.0137 43.2207 32.6895 43.4316 32.416C43.6426 32.1387 43.8945 31.9238 44.1875 31.7715C44.4844 31.6191 44.8125 31.543 45.1719 31.543C45.4844 31.543 45.7676 31.5879 46.0215 31.6777C46.2793 31.7637 46.5 31.9043 46.6836 32.0996C46.8711 32.291 47.0156 32.543 47.1172 32.8555C47.2188 33.168 47.2695 33.5469 47.2695 33.9922V38H45.5703V33.9805C45.5703 33.6992 45.5293 33.4785 45.4473 33.3184C45.3691 33.1543 45.2539 33.0391 45.1016 32.9727C44.9531 32.9023 44.7695 32.8672 44.5508 32.8672C44.3086 32.8672 44.1016 32.9121 43.9297 33.002C43.7617 33.0918 43.627 33.2168 43.5254 33.377C43.4238 33.5332 43.3496 33.7168 43.3027 33.9277C43.2559 34.1387 43.2324 34.3652 43.2324 34.6074Z" fill="url(#paint3_linear_936_1882)"/>
</g>
<defs>
<linearGradient id="paint0_linear_936_1882" x1="27.5" y1="2" x2="27.5" y2="44" gradientUnits="userSpaceOnUse">
<stop stop-color="#5C5C5C"/>
<stop offset="1"/>
</linearGradient>
<linearGradient id="paint1_linear_936_1882" x1="27.5117" y1="5" x2="27.5117" y2="25" gradientUnits="userSpaceOnUse">
<stop stop-color="#F8E889"/>
<stop offset="1" stop-color="#E4B764"/>
</linearGradient>
<linearGradient id="paint2_linear_936_1882" x1="27.5117" y1="5" x2="27.5117" y2="25" gradientUnits="userSpaceOnUse">
<stop stop-color="#F8E889"/>
<stop offset="1" stop-color="#E4B764"/>
</linearGradient>
<linearGradient id="paint3_linear_936_1882" x1="27.5" y1="27" x2="27.5" y2="41" gradientUnits="userSpaceOnUse">
<stop stop-color="#F8E889"/>
<stop offset="1" stop-color="#E4B764"/>
</linearGradient>
<clipPath id="clip0_936_1882">
<rect width="41" height="14" fill="white" transform="translate(7 27)"/>
</clipPath>
</defs>
</svg>
