<svg width="30" height="31" viewBox="0 0 30 31" fill="none" xmlns="http://www.w3.org/2000/svg">
<g filter="url(#filter0_dddd_19484_1651)">
<g clip-path="url(#clip0_19484_1651)">
<path d="M4.70156 9.7384L13.8682 14.6627C14.1762 14.8277 14.5747 14.906 14.9756 14.906C15.3764 14.906 15.7749 14.8277 16.0829 14.6627L25.2496 9.7384C25.8472 9.41696 26.4119 8.16663 25.3156 8.16663H4.63678C3.54045 8.16663 4.10511 9.41696 4.70156 9.7384ZM25.527 12.431L16.0829 17.3528C15.6673 17.5704 15.3764 17.5961 14.9756 17.5961C14.5747 17.5961 14.2838 17.5704 13.8682 17.3528C13.4527 17.1353 5.15011 12.783 4.47178 12.4297C3.99511 12.1804 4 12.4725 4 12.6974V21.6111C4 22.1244 4.69178 22.8333 5.22222 22.8333H24.7778C25.3082 22.8333 26 22.1244 26 21.6111V12.6986C26 12.4737 26.0049 12.1816 25.527 12.431Z" fill="url(#paint0_linear_19484_1651)"/>
</g>
</g>
<defs>
<filter id="filter0_dddd_19484_1651" x="-7" y="-0.5" width="44" height="56" filterUnits="userSpaceOnUse" color-interpolation-filters="sRGB">
<feFlood flood-opacity="0" result="BackgroundImageFix"/>
<feColorMatrix in="SourceAlpha" type="matrix" values="0 0 0 0 0 0 0 0 0 0 0 0 0 0 0 0 0 0 127 0" result="hardAlpha"/>
<feOffset dy="1"/>
<feGaussianBlur stdDeviation="1"/>
<feColorMatrix type="matrix" values="0 0 0 0 0 0 0 0 0 0 0 0 0 0 0 0 0 0 0.1 0"/>
<feBlend mode="normal" in2="BackgroundImageFix" result="effect1_dropShadow_19484_1651"/>
<feColorMatrix in="SourceAlpha" type="matrix" values="0 0 0 0 0 0 0 0 0 0 0 0 0 0 0 0 0 0 127 0" result="hardAlpha"/>
<feOffset dy="4"/>
<feGaussianBlur stdDeviation="2"/>
<feColorMatrix type="matrix" values="0 0 0 0 0 0 0 0 0 0 0 0 0 0 0 0 0 0 0.09 0"/>
<feBlend mode="normal" in2="effect1_dropShadow_19484_1651" result="effect2_dropShadow_19484_1651"/>
<feColorMatrix in="SourceAlpha" type="matrix" values="0 0 0 0 0 0 0 0 0 0 0 0 0 0 0 0 0 0 127 0" result="hardAlpha"/>
<feOffset dy="10"/>
<feGaussianBlur stdDeviation="3"/>
<feColorMatrix type="matrix" values="0 0 0 0 0 0 0 0 0 0 0 0 0 0 0 0 0 0 0.05 0"/>
<feBlend mode="normal" in2="effect2_dropShadow_19484_1651" result="effect3_dropShadow_19484_1651"/>
<feColorMatrix in="SourceAlpha" type="matrix" values="0 0 0 0 0 0 0 0 0 0 0 0 0 0 0 0 0 0 127 0" result="hardAlpha"/>
<feOffset dy="18"/>
<feGaussianBlur stdDeviation="3.5"/>
<feColorMatrix type="matrix" values="0 0 0 0 0 0 0 0 0 0 0 0 0 0 0 0 0 0 0.01 0"/>
<feBlend mode="normal" in2="effect3_dropShadow_19484_1651" result="effect4_dropShadow_19484_1651"/>
<feBlend mode="normal" in="SourceGraphic" in2="effect4_dropShadow_19484_1651" result="shape"/>
</filter>
<linearGradient id="paint0_linear_19484_1651" x1="15" y1="8.16663" x2="15" y2="22.8333" gradientUnits="userSpaceOnUse">
<stop stop-color="#F8E889"/>
<stop offset="1" stop-color="#E4B764"/>
</linearGradient>
<clipPath id="clip0_19484_1651">
<rect width="22" height="22" fill="white" transform="translate(4 4.5)"/>
</clipPath>
</defs>
</svg>
