<svg width="14" height="14" viewBox="0 0 14 14" fill="none" xmlns="http://www.w3.org/2000/svg">
<path d="M3.03553 8.98223C2.48816 9.52961 2.48816 10.4171 3.03553 10.9645C3.58291 11.5118 4.47039 11.5118 5.01777 10.9645L7 8.98223L8.98223 10.9645C9.52961 11.5118 10.4171 11.5118 10.9645 10.9645C11.5118 10.4171 11.5118 9.52961 10.9645 8.98223L8.98223 7L10.9645 5.01777C11.5118 4.47039 11.5118 3.58291 10.9645 3.03553C10.4171 2.48816 9.52961 2.48816 8.98223 3.03553L7 5.01777L5.01777 3.03553C4.47039 2.48816 3.58291 2.48816 3.03553 3.03553C2.48816 3.58291 2.48816 4.47039 3.03553 5.01777L5.01777 7L3.03553 8.98223Z" fill="url(#paint0_linear_19496_2553)"/>
<defs>
<linearGradient id="paint0_linear_19496_2553" x1="7" y1="2.625" x2="7" y2="11.375" gradientUnits="userSpaceOnUse">
<stop stop-color="#5C5C5C"/>
<stop offset="1"/>
</linearGradient>
</defs>
</svg>
